<!--?xml version="1.0" encoding="UTF-8"?-->
<svg id="a" data-name="Layer 1" xmlns="http://www.w3.org/2000/svg" viewBox="0 0 774.22 596.69" style="">
  <defs>
    <style>
      .b {
        fill: none;
        stroke: #000;
        stroke-miterlimit: 10;
        stroke-width: 4px;
      }
    </style>
  </defs>
  <path class="b JaIQWzQo_0" d="M2.49,169.43H44.51l15.13,80.15,22.14-80.15h41.87l22.2,80.04,15.14-80.04h41.8l-31.56,143.16h-43.38l-25.11-90.14-25.01,90.14H34.34L2.49,169.43Z"></path>
  <path class="b JaIQWzQo_1" d="M324.56,270.6h-79.69c.72,6.38,2.44,11.13,5.18,14.26,3.84,4.49,8.85,6.74,15.04,6.74,3.91,0,7.62-.98,11.13-2.93,2.15-1.24,4.46-3.42,6.93-6.54l39.16,3.61c-5.99,10.42-13.22,17.89-21.68,22.41-8.46,4.52-20.61,6.79-36.43,6.79-13.74,0-24.55-1.94-32.42-5.81-7.88-3.87-14.4-10.02-19.58-18.46-5.18-8.43-7.76-18.34-7.76-29.74,0-16.21,5.19-29.33,15.58-39.36,10.38-10.02,24.72-15.04,43.02-15.04,14.84,0,26.56,2.25,35.16,6.74s15.14,11,19.63,19.53c4.49,8.53,6.74,19.63,6.74,33.3v4.49Zm-40.43-19.04c-.78-7.68-2.85-13.18-6.2-16.5-3.35-3.32-7.76-4.98-13.23-4.98-6.32,0-11.36,2.51-15.14,7.52-2.41,3.12-3.94,7.78-4.59,13.96h39.16Z"></path>
  <path class="b JaIQWzQo_2" d="M500.18,288.96h-50.22l-6.98,23.63h-45.17l53.81-143.16h48.25l53.8,143.16h-46.33l-7.16-23.63Zm-9.18-30.96l-15.8-51.46-15.64,51.46h31.44Z"></path>
  <path class="b JaIQWzQo_3" d="M565.48,208.89h37.21v16.99c3.58-7.36,7.28-12.42,11.08-15.19,3.81-2.77,8.51-4.15,14.11-4.15s12.27,1.82,19.24,5.47l-12.3,28.32c-4.69-1.95-8.4-2.93-11.13-2.93-5.21,0-9.25,2.15-12.11,6.45-4.1,6.05-6.15,17.38-6.15,33.98v34.77h-39.94v-103.71Z"></path>
  <path class="b JaIQWzQo_4" d="M772.22,270.6h-79.69c.72,6.38,2.44,11.13,5.18,14.26,3.84,4.49,8.85,6.74,15.04,6.74,3.91,0,7.62-.98,11.13-2.93,2.15-1.24,4.46-3.42,6.93-6.54l39.16,3.61c-5.99,10.42-13.22,17.89-21.68,22.41-8.46,4.52-20.61,6.79-36.43,6.79-13.74,0-24.54-1.94-32.42-5.81-7.88-3.87-14.4-10.02-19.58-18.46-5.18-8.43-7.76-18.34-7.76-29.74,0-16.21,5.19-29.33,15.58-39.36,10.38-10.02,24.72-15.04,43.02-15.04,14.84,0,26.56,2.25,35.16,6.74s15.14,11,19.63,19.53c4.49,8.53,6.74,19.63,6.74,33.3v4.49Zm-40.43-19.04c-.78-7.68-2.85-13.18-6.2-16.5-3.35-3.32-7.76-4.98-13.23-4.98-6.32,0-11.36,2.51-15.14,7.52-2.41,3.12-3.94,7.78-4.59,13.96h39.16Z"></path>
  <path class="b JaIQWzQo_5" d="M31.89,552.6v-143.16H105.62c13.67,0,24.12,1.17,31.35,3.52s13.05,6.69,17.48,13.04c4.43,6.35,6.64,14.08,6.64,23.19,0,7.94-1.69,14.79-5.08,20.56-3.39,5.76-8.05,10.43-13.97,14.01-3.78,2.28-8.96,4.17-15.54,5.66,5.27,1.76,9.11,3.52,11.52,5.28,1.63,1.17,3.98,3.68,7.08,7.53,3.09,3.85,5.16,6.81,6.2,8.89l21.42,41.48h-49.99l-23.65-43.75c-3-5.66-5.66-9.34-8.01-11.04-3.19-2.21-6.8-3.32-10.84-3.32h-3.91v58.11H31.89Zm44.43-85.16h18.65c2.02,0,5.92-.65,11.72-1.95,2.93-.59,5.32-2.08,7.18-4.49,1.86-2.41,2.78-5.18,2.78-8.3,0-4.62-1.46-8.17-4.39-10.64-2.93-2.47-8.43-3.71-16.5-3.71h-19.43v29.1Z"></path>
  <path class="b JaIQWzQo_6" d="M220.46,482.48l-37.99-4c1.43-6.64,3.5-11.87,6.2-15.67,2.7-3.81,6.59-7.11,11.67-9.91,3.65-2.02,8.66-3.58,15.04-4.69,6.38-1.11,13.28-1.66,20.7-1.66,11.91,0,21.48,.67,28.71,2,7.23,1.33,13.25,4.12,18.07,8.35,3.38,2.93,6.05,7.08,8.01,12.45s2.93,10.5,2.93,15.38v45.8c0,4.88,.31,8.71,.93,11.47,.62,2.77,1.97,6.3,4.05,10.6h-37.3c-1.5-2.67-2.48-4.7-2.93-6.1-.46-1.4-.91-3.6-1.37-6.59-5.21,5.01-10.39,8.59-15.53,10.74-7.03,2.86-15.2,4.3-24.51,4.3-12.37,0-21.76-2.86-28.17-8.59-6.41-5.73-9.62-12.79-9.62-21.19,0-7.88,2.31-14.36,6.93-19.43,4.62-5.08,13.15-8.85,25.59-11.33,14.91-2.99,24.58-5.09,29-6.3,4.43-1.2,9.11-2.78,14.06-4.74,0-4.88-1.01-8.3-3.03-10.25-2.02-1.95-5.57-2.93-10.64-2.93-6.51,0-11.39,1.04-14.65,3.12-2.54,1.63-4.59,4.69-6.15,9.18Zm34.47,20.9c-5.47,1.95-11.17,3.68-17.09,5.18-8.07,2.15-13.18,4.26-15.33,6.35-2.21,2.15-3.32,4.59-3.32,7.32,0,3.12,1.09,5.68,3.27,7.67,2.18,1.99,5.39,2.98,9.62,2.98s8.54-1.07,12.35-3.22,6.51-4.77,8.11-7.86c1.59-3.09,2.39-7.11,2.39-12.06v-6.35Z"></path>
  <path class="b JaIQWzQo_7" d="M317.92,448.89h37.11v15.14c5.35-6.31,10.74-10.81,16.19-13.48,5.44-2.67,12.01-4,19.71-4,8.28,0,14.83,1.46,19.66,4.39s8.77,7.29,11.83,13.09c6.24-6.77,11.93-11.38,17.07-13.82,5.14-2.44,11.47-3.66,19.02-3.66,11.12,0,19.8,3.3,26.04,9.91,6.24,6.61,9.36,16.94,9.36,31.01v65.14h-39.84v-59.08c0-4.69-.91-8.17-2.72-10.45-2.66-3.58-5.97-5.37-9.93-5.37-4.67,0-8.44,1.69-11.29,5.08-2.85,3.39-4.28,8.82-4.28,16.31v53.52h-39.84v-57.13c0-4.56-.26-7.65-.78-9.28-.85-2.6-2.32-4.7-4.41-6.3-2.09-1.59-4.54-2.39-7.35-2.39-4.57,0-8.33,1.73-11.27,5.18-2.94,3.45-4.41,9.12-4.41,16.99v52.93h-39.84v-103.71Z"></path>
  <path class="b JaIQWzQo_8" d="M519.1,409.43h39.75v27.05h-39.75v-27.05Zm0,39.45h39.75v103.71h-39.75v-103.71Z"></path>
  <path class="b JaIQWzQo_9" d="M585.6,409.43h39.84v143.16h-39.84v-143.16Z"></path>
  <path class="b JaIQWzQo_10" d="M642.83,448.89h41.94l21.39,69.04,19.87-69.04h39.17l-41.15,110.81c-4.69,12.64-9.47,21.17-14.35,25.6-6.9,6.25-17.41,9.38-31.53,9.38-5.73,0-14.58-.78-26.55-2.34l-3.12-27.73c5.72,1.82,12.1,2.73,19.12,2.73,4.68,0,8.47-1.08,11.37-3.23,2.89-2.15,5.35-6,7.37-11.54l-43.52-103.69Z"></path>
<style data-made-with="vivus-instant">.JaIQWzQo_0{stroke-dasharray:1023 1025;stroke-dashoffset:1024;animation:JaIQWzQo_draw_0 7200ms linear 0ms infinite,JaIQWzQo_fade 7200ms linear 0ms infinite;}.JaIQWzQo_1{stroke-dasharray:631 633;stroke-dashoffset:632;animation:JaIQWzQo_draw_1 7200ms linear 0ms infinite,JaIQWzQo_fade 7200ms linear 0ms infinite;}.JaIQWzQo_2{stroke-dasharray:685 687;stroke-dashoffset:686;animation:JaIQWzQo_draw_2 7200ms linear 0ms infinite,JaIQWzQo_fade 7200ms linear 0ms infinite;}.JaIQWzQo_3{stroke-dasharray:379 381;stroke-dashoffset:380;animation:JaIQWzQo_draw_3 7200ms linear 0ms infinite,JaIQWzQo_fade 7200ms linear 0ms infinite;}.JaIQWzQo_4{stroke-dasharray:631 633;stroke-dashoffset:632;animation:JaIQWzQo_draw_4 7200ms linear 0ms infinite,JaIQWzQo_fade 7200ms linear 0ms infinite;}.JaIQWzQo_5{stroke-dasharray:792 794;stroke-dashoffset:793;animation:JaIQWzQo_draw_5 7200ms linear 0ms infinite,JaIQWzQo_fade 7200ms linear 0ms infinite;}.JaIQWzQo_6{stroke-dasharray:653 655;stroke-dashoffset:654;animation:JaIQWzQo_draw_6 7200ms linear 0ms infinite,JaIQWzQo_fade 7200ms linear 0ms infinite;}.JaIQWzQo_7{stroke-dasharray:856 858;stroke-dashoffset:857;animation:JaIQWzQo_draw_7 7200ms linear 0ms infinite,JaIQWzQo_fade 7200ms linear 0ms infinite;}.JaIQWzQo_8{stroke-dasharray:421 423;stroke-dashoffset:422;animation:JaIQWzQo_draw_8 7200ms linear 0ms infinite,JaIQWzQo_fade 7200ms linear 0ms infinite;}.JaIQWzQo_9{stroke-dasharray:367 369;stroke-dashoffset:368;animation:JaIQWzQo_draw_9 7200ms linear 0ms infinite,JaIQWzQo_fade 7200ms linear 0ms infinite;}.JaIQWzQo_10{stroke-dasharray:619 621;stroke-dashoffset:620;animation:JaIQWzQo_draw_10 7200ms linear 0ms infinite,JaIQWzQo_fade 7200ms linear 0ms infinite;}@keyframes JaIQWzQo_draw{100%{stroke-dashoffset:0;}}@keyframes JaIQWzQo_fade{0%{stroke-opacity:1;}94.44444444444444%{stroke-opacity:1;}100%{stroke-opacity:0;}}@keyframes JaIQWzQo_draw_0{11.11111111111111%{stroke-dashoffset: 1024}38.88888888888889%{ stroke-dashoffset: 0;}100%{ stroke-dashoffset: 0;}}@keyframes JaIQWzQo_draw_1{12.5%{stroke-dashoffset: 632}40.27777777777778%{ stroke-dashoffset: 0;}100%{ stroke-dashoffset: 0;}}@keyframes JaIQWzQo_draw_2{13.88888888888889%{stroke-dashoffset: 686}41.66666666666667%{ stroke-dashoffset: 0;}100%{ stroke-dashoffset: 0;}}@keyframes JaIQWzQo_draw_3{15.277777777777779%{stroke-dashoffset: 380}43.05555555555556%{ stroke-dashoffset: 0;}100%{ stroke-dashoffset: 0;}}@keyframes JaIQWzQo_draw_4{16.666666666666664%{stroke-dashoffset: 632}44.44444444444444%{ stroke-dashoffset: 0;}100%{ stroke-dashoffset: 0;}}@keyframes JaIQWzQo_draw_5{18.055555555555554%{stroke-dashoffset: 793}45.83333333333333%{ stroke-dashoffset: 0;}100%{ stroke-dashoffset: 0;}}@keyframes JaIQWzQo_draw_6{19.444444444444446%{stroke-dashoffset: 654}47.22222222222222%{ stroke-dashoffset: 0;}100%{ stroke-dashoffset: 0;}}@keyframes JaIQWzQo_draw_7{20.833333333333336%{stroke-dashoffset: 857}48.61111111111111%{ stroke-dashoffset: 0;}100%{ stroke-dashoffset: 0;}}@keyframes JaIQWzQo_draw_8{22.22222222222222%{stroke-dashoffset: 422}50%{ stroke-dashoffset: 0;}100%{ stroke-dashoffset: 0;}}@keyframes JaIQWzQo_draw_9{23.61111111111111%{stroke-dashoffset: 368}51.388888888888886%{ stroke-dashoffset: 0;}100%{ stroke-dashoffset: 0;}}@keyframes JaIQWzQo_draw_10{25%{stroke-dashoffset: 620}52.77777777777778%{ stroke-dashoffset: 0;}100%{ stroke-dashoffset: 0;}}</style></svg>